<svg xmlns="http://www.w3.org/2000/svg" xmlns:xlink="http://www.w3.org/1999/xlink" width="1080" zoomAndPan="magnify" viewBox="0 0 810 809.999993" height="1080" preserveAspectRatio="xMidYMid meet" version="1.0"><defs><clipPath id="11ff5ed073"><path d="M 146 81 L 533 81 L 533 421 L 146 421 Z M 146 81 " clip-rule="nonzero"/></clipPath><clipPath id="f72edc789b"><path d="M 682 540 L 723 540 L 723 588 L 682 588 Z M 682 540 " clip-rule="nonzero"/></clipPath><clipPath id="3c6928023e"><path d="M 732 524 L 784.222656 524 L 784.222656 587 L 732 587 Z M 732 524 " clip-rule="nonzero"/></clipPath><clipPath id="660833aa93"><path d="M 26 475 L 116 475 L 116 588 L 26 588 Z M 26 475 " clip-rule="nonzero"/></clipPath><clipPath id="342a49a8ec"><path d="M 149 505 L 215 505 L 215 588 L 149 588 Z M 149 505 " clip-rule="nonzero"/></clipPath></defs><g clip-path="url(#11ff5ed073)"><path fill="#5b6960" d="M 337.203125 81 C 232.007812 82.492188 146.65625 169.128906 146.804688 274.257812 C 146.804688 332.5625 172.765625 384.753906 213.652344 420.09375 C 237.824219 365.964844 234.394531 265.308594 234.394531 265.308594 C 234.394531 207.003906 281.546875 159.585938 339.890625 159.285156 C 398.230469 159.585938 445.382812 206.855469 445.382812 265.308594 C 445.382812 265.308594 441.953125 365.964844 466.125 420.09375 C 507.011719 384.753906 532.972656 332.414062 532.972656 274.105469 C 533.121094 166.445312 445.085938 79.507812 337.203125 81 Z M 337.203125 81 " fill-opacity="1" fill-rule="nonzero"/></g><path fill="#5b6960" d="M 406.4375 261.433594 C 407.484375 264.5625 407.632812 267.84375 407.335938 271.125 C 406.589844 277.835938 405.394531 288.273438 403.902344 297.964844 C 401.8125 312.28125 393.90625 325.105469 382.117188 333.457031 L 369.285156 342.550781 C 351.824219 354.929688 328.398438 354.929688 310.941406 342.550781 L 298.109375 333.457031 C 286.320312 325.105469 278.410156 312.28125 276.324219 297.964844 C 274.980469 288.125 273.636719 277.535156 272.890625 270.976562 C 272.59375 268.144531 272.742188 265.160156 273.488281 262.328125 C 276.171875 252.933594 282.589844 244.730469 291.394531 240.109375 C 291.542969 239.960938 291.691406 239.960938 291.839844 239.808594 L 330.339844 219.828125 C 330.636719 219.679688 331.085938 219.53125 331.53125 219.230469 C 332.578125 218.785156 333.621094 218.488281 334.667969 218.1875 C 337.800781 217.292969 340.933594 217.292969 344.066406 217.890625 C 344.664062 218.039062 345.109375 218.1875 345.707031 218.335938 C 345.855469 218.335938 346.007812 218.335938 346.15625 218.488281 C 346.902344 218.785156 347.796875 219.082031 348.542969 219.382812 C 348.992188 219.53125 349.289062 219.679688 349.738281 219.976562 L 388.234375 239.960938 C 388.382812 239.960938 388.53125 240.109375 388.683594 240.257812 C 397.335938 244.730469 403.605469 252.484375 406.4375 261.433594 Z M 406.4375 261.433594 " fill-opacity="1" fill-rule="nonzero"/><g clip-path="url(#f72edc789b)"><path fill="#5b6960" d="M 721.433594 577.113281 L 721.132812 576.964844 C 720.238281 576.21875 718.894531 576.367188 718 577.113281 C 717.703125 577.414062 717.402344 577.710938 717.105469 578.160156 C 715.910156 579.5 714.417969 580.394531 712.925781 581.140625 C 709.195312 582.78125 705.316406 582.929688 701.585938 581.289062 C 699.796875 580.542969 698.304688 579.351562 696.8125 577.859375 C 695.46875 576.367188 694.273438 574.429688 693.378906 572.195312 C 692.484375 569.957031 692.035156 567.273438 692.035156 564.140625 C 692.035156 563.097656 692.035156 561.90625 692.1875 561.007812 L 715.613281 561.007812 C 718 561.007812 720.238281 559.816406 721.433594 557.730469 C 722.625 555.789062 722.777344 553.40625 721.878906 551.167969 C 720.835938 548.929688 719.34375 546.992188 717.402344 545.5 C 715.613281 544.011719 713.523438 542.816406 711.136719 542.070312 C 708.898438 541.328125 706.363281 540.878906 703.972656 540.878906 C 700.691406 540.878906 697.707031 541.476562 695.019531 542.816406 C 692.335938 544.160156 690.097656 545.800781 688.308594 548.035156 C 686.515625 550.125 685.171875 552.660156 684.277344 555.492188 C 683.382812 558.324219 682.933594 561.308594 682.933594 564.441406 C 682.933594 568.316406 683.679688 571.746094 684.875 574.730469 C 686.070312 577.710938 687.859375 580.246094 689.949219 582.183594 C 692.035156 584.121094 694.425781 585.761719 696.960938 586.65625 C 699.496094 587.550781 702.183594 588.148438 705.019531 588.148438 C 708.152344 588.148438 711.285156 587.550781 714.269531 586.210938 C 716.957031 585.019531 719.34375 583.378906 721.285156 581.289062 C 721.433594 581.140625 721.730469 580.84375 721.878906 580.691406 C 722.179688 580.246094 722.328125 579.796875 722.328125 579.351562 C 722.328125 578.308594 722.03125 577.710938 721.433594 577.113281 C 721.433594 577.261719 721.433594 577.113281 721.433594 577.113281 Z M 694.722656 553.40625 C 695.46875 551.914062 696.511719 550.71875 697.558594 549.527344 C 698.601562 548.484375 699.945312 547.589844 701.289062 546.992188 C 704.273438 545.652344 708.449219 545.800781 712.03125 547.738281 C 713.972656 548.78125 715.613281 550.570312 716.808594 553.105469 C 717.105469 553.703125 717.105469 554.148438 716.808594 554.597656 C 716.507812 555.042969 715.910156 555.34375 715.164062 555.492188 L 693.378906 555.492188 C 693.976562 554.894531 694.273438 554.148438 694.722656 553.40625 Z M 694.722656 553.40625 " fill-opacity="1" fill-rule="nonzero"/></g><path fill="#5b6960" d="M 734.117188 576.367188 C 732.625 576.367188 731.28125 576.964844 730.234375 578.007812 C 729.191406 579.054688 728.59375 580.394531 728.59375 581.886719 C 728.59375 583.527344 729.191406 584.867188 730.234375 585.914062 C 731.28125 586.957031 732.625 587.550781 734.117188 587.550781 C 735.609375 587.550781 736.949219 586.957031 737.996094 585.914062 C 739.039062 584.867188 739.636719 583.527344 739.636719 581.886719 C 739.636719 580.394531 739.039062 579.054688 737.996094 578.007812 C 736.949219 576.964844 735.609375 576.367188 734.117188 576.367188 Z M 734.117188 576.367188 " fill-opacity="1" fill-rule="nonzero"/><path fill="#5b6960" d="M 775.148438 576.367188 C 773.65625 576.367188 772.316406 576.964844 771.269531 578.007812 C 770.226562 579.054688 769.628906 580.394531 769.628906 581.886719 C 769.628906 583.527344 770.226562 584.867188 771.269531 585.914062 C 772.316406 586.957031 773.65625 587.550781 775.148438 587.550781 C 776.640625 587.550781 777.984375 586.957031 779.03125 585.914062 C 780.074219 584.867188 780.671875 583.527344 780.671875 581.886719 C 780.671875 580.394531 780.074219 579.054688 779.03125 578.007812 C 778.132812 576.964844 776.792969 576.367188 775.148438 576.367188 Z M 775.148438 576.367188 " fill-opacity="1" fill-rule="nonzero"/><g clip-path="url(#3c6928023e)"><path fill="#5b6960" d="M 781.117188 524.625 C 779.179688 524.625 777.539062 525.816406 776.792969 527.605469 L 759.183594 573.089844 L 741.128906 527.457031 C 740.382812 525.667969 738.742188 524.476562 736.800781 524.476562 C 735.308594 524.476562 733.816406 525.222656 732.921875 526.5625 C 732.027344 527.90625 731.878906 529.398438 732.472656 530.886719 L 753.363281 584.421875 C 753.960938 585.914062 755.453125 586.957031 757.09375 586.957031 C 758.738281 586.957031 760.230469 585.914062 760.824219 584.421875 L 783.058594 527.160156 L 784.101562 524.476562 L 781.117188 524.476562 Z M 781.117188 524.625 " fill-opacity="1" fill-rule="nonzero"/></g><g clip-path="url(#660833aa93)"><path fill="#5b6960" d="M 107.261719 475.714844 C 103.980469 475.714844 101.144531 477.800781 100.097656 480.785156 L 70.851562 561.457031 C 70.703125 561.90625 70.40625 561.90625 70.105469 561.90625 C 69.957031 561.90625 69.511719 561.90625 69.359375 561.457031 L 41.308594 480.933594 C 40.265625 477.800781 37.28125 475.714844 33.996094 475.714844 C 29.667969 475.714844 26.238281 479.144531 26.238281 483.46875 L 26.238281 584.273438 C 26.238281 586.359375 27.878906 588 29.96875 588 C 32.058594 588 33.699219 586.359375 33.699219 584.273438 L 33.699219 499.574219 C 33.699219 499.425781 33.699219 499.425781 33.847656 499.273438 C 33.996094 499.273438 34.144531 499.273438 34.144531 499.425781 L 60.558594 571.148438 C 61.75 574.28125 64.734375 576.367188 68.019531 576.367188 C 71.449219 576.367188 74.285156 574.28125 75.480469 571.148438 L 100.84375 500.914062 C 100.84375 500.765625 100.84375 500.765625 101.144531 500.765625 C 101.292969 500.765625 101.292969 500.914062 101.292969 501.0625 L 101.292969 581.289062 C 101.292969 585.019531 104.277344 588.148438 108.15625 588.148438 C 111.886719 588.148438 115.019531 585.167969 115.019531 581.289062 L 115.019531 483.617188 C 114.871094 479.144531 111.441406 475.714844 107.261719 475.714844 Z M 107.261719 475.714844 " fill-opacity="1" fill-rule="nonzero"/></g><g clip-path="url(#342a49a8ec)"><path fill="#5b6960" d="M 208.28125 505.390625 C 204.847656 505.390625 201.863281 508.222656 201.863281 511.800781 L 201.863281 565.78125 C 201.863281 568.019531 201.265625 569.957031 200.074219 571.894531 C 198.878906 573.832031 197.089844 575.625 195.148438 577.113281 C 193.0625 578.605469 190.671875 579.796875 187.988281 580.542969 C 182.914062 582.035156 177.691406 582.183594 173.066406 580.691406 C 170.976562 579.949219 169.035156 578.902344 167.394531 577.414062 C 165.753906 575.921875 164.410156 573.984375 163.515625 571.449219 C 162.472656 568.914062 162.171875 565.929688 162.171875 562.351562 L 162.171875 511.800781 C 162.171875 508.371094 159.339844 505.390625 155.757812 505.390625 L 155.609375 505.390625 C 152.175781 505.390625 149.191406 508.222656 149.191406 511.800781 L 149.191406 562.351562 C 149.191406 566.527344 150.085938 570.253906 151.726562 573.535156 C 153.371094 576.667969 155.609375 579.351562 158.441406 581.585938 C 161.128906 583.675781 164.261719 585.316406 167.695312 586.507812 C 171.125 587.550781 174.707031 588.148438 178.4375 588.148438 C 183.808594 588.148438 189.03125 586.957031 194.105469 584.71875 C 198.132812 582.78125 201.566406 580.097656 204.25 576.519531 L 207.980469 583.824219 C 208.578125 584.867188 209.625 585.613281 210.816406 585.613281 C 211.710938 585.613281 212.609375 585.316406 213.355469 584.71875 C 214.101562 584.121094 214.398438 583.226562 214.398438 582.183594 L 214.398438 511.949219 C 214.546875 508.222656 211.710938 505.390625 208.28125 505.390625 Z M 208.28125 505.390625 " fill-opacity="1" fill-rule="nonzero"/></g><path fill="#5b6960" d="M 296.316406 564.738281 C 296.167969 568.613281 294.976562 572.492188 293.035156 575.921875 C 290.945312 579.5 288.261719 582.183594 285.125 583.972656 C 280.203125 586.507812 274.679688 587.851562 268.414062 587.851562 C 263.191406 587.851562 257.96875 586.808594 252.746094 584.867188 C 248.417969 583.226562 244.539062 580.84375 241.257812 577.859375 L 241.109375 577.710938 L 240.0625 576.667969 C 239.464844 576.070312 239.167969 575.324219 239.167969 574.578125 C 239.167969 573.683594 239.617188 572.789062 240.210938 572.34375 C 241.257812 571.449219 242.75 571.449219 243.941406 572.34375 C 244.390625 572.789062 244.6875 573.089844 245.136719 573.535156 C 248.121094 576.21875 251.253906 578.15625 254.386719 579.648438 C 258.117188 581.289062 262.445312 582.035156 267.519531 582.035156 C 271.996094 582.035156 275.578125 581.140625 278.261719 579.5 C 281.097656 577.859375 283.039062 575.773438 284.378906 573.238281 C 285.574219 570.851562 286.171875 568.316406 285.871094 565.78125 C 285.574219 563.246094 284.679688 561.007812 283.039062 559.21875 C 281.394531 557.28125 279.308594 555.789062 276.769531 554.449219 C 274.234375 553.105469 271.398438 551.765625 268.5625 550.71875 C 265.730469 549.675781 262.746094 548.484375 259.910156 547.589844 C 257.074219 546.546875 254.238281 545.5 251.851562 544.308594 C 247.824219 542.371094 244.839844 539.6875 242.898438 536.105469 C 241.109375 532.675781 240.210938 529.097656 240.511719 525.371094 C 240.660156 521.792969 241.703125 518.210938 243.644531 514.933594 C 245.585938 511.652344 248.417969 508.96875 252 507.179688 C 255.878906 505.238281 260.507812 504.195312 265.578125 504.195312 C 269.757812 504.195312 274.085938 504.941406 278.261719 506.582031 C 281.84375 507.921875 284.976562 509.863281 287.8125 512.398438 C 287.960938 512.546875 287.960938 512.546875 288.109375 512.695312 L 288.261719 512.84375 L 288.855469 513.441406 C 289.007812 513.589844 289.15625 513.738281 289.15625 513.886719 C 289.304688 514.1875 289.453125 514.484375 289.601562 514.933594 C 289.753906 515.378906 289.601562 515.976562 289.453125 516.421875 C 289.304688 516.871094 289.15625 517.167969 288.707031 517.46875 C 288.109375 518.0625 287.363281 518.363281 286.769531 518.363281 C 286.023438 518.363281 285.425781 518.0625 284.828125 517.617188 L 284.230469 517.019531 C 281.546875 514.632812 278.859375 512.84375 276.324219 511.652344 C 273.339844 510.308594 269.757812 509.714844 265.578125 509.714844 C 261.847656 509.714844 258.714844 510.609375 256.03125 512.546875 C 253.34375 514.484375 251.554688 516.574219 250.65625 519.109375 C 249.761719 521.640625 250.0625 524.027344 251.402344 526.863281 C 252.746094 529.546875 255.878906 531.929688 260.65625 533.722656 C 265.28125 535.511719 269.460938 537.152344 273.339844 538.492188 C 277.21875 539.984375 280.800781 541.625 284.082031 543.414062 C 288.707031 545.800781 291.839844 549.082031 293.632812 552.957031 C 295.871094 556.835938 296.617188 560.859375 296.316406 564.738281 Z M 296.316406 564.738281 " fill-opacity="1" fill-rule="nonzero"/><path fill="#5b6960" d="M 328.398438 467.363281 C 324.816406 467.363281 321.984375 470.195312 321.984375 473.777344 L 321.984375 580.992188 C 321.984375 584.570312 324.816406 587.402344 328.398438 587.402344 C 331.980469 587.402344 334.816406 584.570312 334.816406 580.992188 L 334.816406 473.777344 C 334.816406 470.347656 331.832031 467.363281 328.398438 467.363281 Z M 328.398438 467.363281 " fill-opacity="1" fill-rule="nonzero"/><path fill="#5b6960" d="M 371.820312 488.242188 C 370.328125 486.75 368.390625 486.003906 366.300781 486.003906 C 364.0625 486.003906 362.121094 486.75 360.628906 488.242188 C 359.136719 489.730469 358.390625 491.671875 358.390625 493.90625 C 358.390625 496.144531 359.136719 498.082031 360.628906 499.574219 C 362.121094 501.0625 364.0625 501.808594 366.300781 501.808594 C 368.390625 501.808594 370.328125 501.0625 371.820312 499.574219 C 373.3125 498.082031 374.207031 496.144531 374.207031 493.90625 C 374.207031 491.671875 373.460938 489.730469 371.820312 488.242188 Z M 371.820312 488.242188 " fill-opacity="1" fill-rule="nonzero"/><path fill="#5b6960" d="M 366.152344 507.328125 C 362.71875 507.328125 359.734375 510.160156 359.734375 513.738281 L 359.734375 581.140625 C 359.734375 584.570312 362.570312 587.550781 366.152344 587.550781 C 369.582031 587.550781 372.566406 584.71875 372.566406 581.140625 L 372.566406 513.738281 C 372.566406 510.308594 369.730469 507.328125 366.152344 507.328125 Z M 366.152344 507.328125 " fill-opacity="1" fill-rule="nonzero"/><path fill="#5b6960" d="M 562.367188 488.242188 C 560.875 486.75 558.9375 486.003906 556.847656 486.003906 C 554.609375 486.003906 552.667969 486.75 551.175781 488.242188 C 549.6875 489.730469 548.941406 491.671875 548.941406 493.90625 C 548.941406 496.144531 549.6875 498.082031 551.175781 499.574219 C 552.667969 501.0625 554.609375 501.808594 556.847656 501.808594 C 558.9375 501.808594 560.875 501.0625 562.367188 499.574219 C 563.859375 498.082031 564.757812 496.144531 564.757812 493.90625 C 564.757812 491.671875 563.859375 489.730469 562.367188 488.242188 Z M 562.367188 488.242188 " fill-opacity="1" fill-rule="nonzero"/><path fill="#5b6960" d="M 556.699219 507.328125 C 553.265625 507.328125 550.28125 510.160156 550.28125 513.738281 L 550.28125 581.140625 C 550.28125 584.570312 553.117188 587.550781 556.699219 587.550781 C 560.28125 587.550781 563.113281 584.71875 563.113281 581.140625 L 563.113281 513.738281 C 562.964844 510.308594 560.128906 507.328125 556.699219 507.328125 Z M 556.699219 507.328125 " fill-opacity="1" fill-rule="nonzero"/><path fill="#5b6960" d="M 517.605469 519.40625 C 515.960938 516.273438 513.726562 513.589844 511.039062 511.351562 C 508.351562 509.265625 505.21875 507.625 501.636719 506.433594 C 498.207031 505.390625 494.476562 504.792969 490.894531 504.792969 C 485.222656 504.792969 479.851562 506.132812 474.78125 508.667969 C 470.601562 510.757812 467.167969 513.738281 464.484375 517.765625 C 462.246094 514.039062 459.113281 511.054688 455.082031 508.96875 C 450.007812 506.285156 444.488281 504.941406 438.667969 504.941406 C 433.597656 504.941406 428.523438 505.984375 423.746094 508.074219 C 420.613281 509.414062 417.929688 511.355469 415.539062 513.589844 C 415.539062 511.949219 414.792969 510.308594 413.601562 509.117188 C 412.40625 507.925781 410.765625 507.179688 408.976562 507.328125 C 405.394531 507.328125 402.558594 510.308594 402.558594 513.738281 L 402.558594 581.140625 C 402.558594 584.570312 405.394531 587.550781 408.976562 587.550781 L 409.125 587.550781 C 412.554688 587.550781 415.539062 584.71875 415.539062 581.140625 L 415.539062 527.160156 C 415.539062 524.921875 416.136719 522.835938 417.332031 521.046875 C 418.523438 519.109375 420.316406 517.316406 422.253906 515.828125 C 424.34375 514.335938 426.730469 513.144531 429.417969 512.398438 C 434.492188 510.90625 439.566406 510.757812 444.339844 512.25 C 446.429688 512.992188 448.367188 514.1875 450.007812 515.679688 C 451.652344 517.167969 452.992188 519.109375 453.890625 521.492188 C 454.933594 524.027344 455.382812 527.011719 455.230469 530.738281 L 455.230469 581.289062 C 455.230469 584.71875 458.066406 587.703125 461.648438 587.703125 C 465.082031 587.703125 468.066406 584.867188 468.066406 581.289062 L 468.066406 530.738281 C 468.066406 529.992188 468.066406 529.246094 467.914062 528.503906 C 467.914062 527.90625 467.765625 527.308594 467.765625 526.863281 C 467.914062 524.625 468.660156 522.835938 469.855469 521.046875 C 471.199219 519.109375 472.839844 517.46875 474.929688 516.125 C 477.019531 514.632812 479.554688 513.589844 482.089844 512.695312 C 487.164062 511.203125 492.089844 511.054688 496.714844 512.546875 C 498.804688 513.292969 500.742188 514.335938 502.234375 515.828125 C 503.726562 517.316406 505.070312 519.257812 506.113281 521.792969 C 507.011719 524.175781 507.457031 527.308594 507.457031 530.738281 L 507.605469 531.632812 L 507.605469 581.289062 C 507.605469 584.71875 510.441406 587.703125 514.171875 587.703125 C 517.605469 587.703125 520.589844 584.867188 520.589844 581.289062 L 520.4375 528.800781 C 519.84375 525.222656 519.097656 522.089844 517.605469 519.40625 Z M 517.605469 519.40625 " fill-opacity="1" fill-rule="nonzero"/><path fill="#5b6960" d="M 651.152344 519.40625 C 649.511719 516.273438 647.273438 513.589844 644.585938 511.351562 C 641.902344 509.265625 638.765625 507.625 635.1875 506.433594 C 631.753906 505.390625 628.023438 504.792969 624.441406 504.792969 C 619.371094 504.792969 614.296875 505.835938 609.371094 507.921875 C 606.238281 509.265625 603.550781 511.203125 601.164062 513.589844 L 601.164062 513.441406 C 601.164062 511.800781 600.566406 510.160156 599.226562 508.96875 C 598.03125 507.773438 596.390625 507.027344 594.75 507.179688 C 591.316406 507.179688 588.480469 510.011719 588.480469 513.589844 L 588.480469 580.992188 C 588.480469 584.421875 591.316406 587.402344 594.898438 587.402344 C 598.328125 587.402344 601.3125 584.570312 601.3125 580.992188 L 601.3125 527.011719 C 601.3125 524.773438 601.910156 522.6875 603.105469 520.898438 C 604.296875 518.957031 605.941406 517.316406 608.027344 515.679688 C 610.117188 514.1875 612.503906 512.992188 615.191406 512.25 C 620.265625 510.757812 625.335938 510.609375 630.113281 512.097656 C 632.203125 512.84375 634.140625 513.886719 635.78125 515.527344 C 637.425781 517.019531 638.765625 518.957031 639.664062 521.34375 C 640.558594 523.878906 641.003906 526.863281 641.003906 530.589844 L 641.003906 581.140625 C 641.003906 584.570312 643.839844 587.550781 647.421875 587.550781 L 647.570312 587.550781 C 651.003906 587.550781 653.988281 584.71875 653.988281 581.140625 L 653.988281 530.589844 C 653.6875 526.414062 652.792969 522.6875 651.152344 519.40625 Z M 651.152344 519.40625 " fill-opacity="1" fill-rule="nonzero"/></svg>